<svg width="91" height="91" viewBox="0 0 91 91" fill="none" xmlns="http://www.w3.org/2000/svg">
<path d="M90.24 30.0039C89.9253 29.6934 89.5217 29.4887 89.0853 29.4182C88.6489 29.3478 88.2013 29.4152 87.805 29.6109C81.39 32.7829 75.83 37.5609 71.568 43.5249C67.008 37.1309 61.045 32.2199 54.3 29.1219C54.587 26.5959 54.72 22.1619 52.62 19.6279C51.599 18.3949 50.182 17.7419 48.523 17.7419C34.262 17.7419 26.293 25.3509 24.367 27.4499C14.925 30.5859 6.66297 37.1289 1.07697 46.2429L0.396973 47.3539L1.07697 48.4639C6.71797 57.6639 15.084 64.2429 24.638 67.3419C26.948 69.7569 34.824 76.7669 48.524 76.7669C50.182 76.7669 51.599 76.1159 52.621 74.8819C54.667 72.4099 54.594 68.1319 54.322 65.5789C61.057 62.4789 67.011 57.5709 71.567 51.1849C75.83 57.1519 81.389 61.9279 87.805 65.1009C88.2055 65.2993 88.6585 65.366 89.0993 65.2915C89.54 65.2169 89.9459 65.005 90.259 64.6859C90.5728 64.3676 90.778 63.9582 90.8456 63.5163C90.9131 63.0744 90.8394 62.6225 90.635 62.2249C83.364 48.1079 90.589 32.5789 90.659 32.4269C90.8507 32.0298 90.9134 31.5827 90.8382 31.1482C90.7631 30.7137 90.5539 30.3136 90.24 30.0039ZM48.523 21.9869C48.972 21.9869 49.171 22.1199 49.349 22.3359C50.102 23.2419 50.267 25.4349 50.16 27.4729C45.9912 26.0754 41.6238 25.3616 37.227 25.3589C36.108 25.3589 34.998 25.4199 33.894 25.5109C37.38 23.6469 42.234 21.9869 48.523 21.9869ZM23.007 62.2109C16.007 59.2599 9.86097 54.1569 5.39797 47.3559C9.86197 40.5539 16.007 35.4529 23.007 32.5019C29.601 41.1119 29.599 53.5979 23.007 62.2109ZM49.35 72.1779C49.171 72.3919 48.973 72.5239 48.524 72.5239C42.519 72.5239 37.823 71.0109 34.375 69.2519C35.3249 69.3189 36.2767 69.3532 37.229 69.3549C41.688 69.3549 46.045 68.6169 50.172 67.2379C50.257 69.2179 50.079 71.2989 49.35 72.1779ZM37.228 65.1079C33.775 65.1079 30.395 64.6049 27.15 63.6709C33.81 53.9929 33.81 40.7159 27.152 31.0399C30.4266 30.0926 33.818 29.6092 37.227 29.6039C49.942 29.6039 61.748 36.2149 69.059 47.3539C61.751 58.4979 49.944 65.1079 37.228 65.1079ZM84.485 58.1899C80.43 55.3139 76.902 51.6469 74.086 47.3549C76.974 42.9589 80.603 39.2179 84.783 36.3129C83.325 41.5249 82.027 49.6749 84.485 58.1899Z" fill="#EB8F8F"/>
<path d="M17.676 43.6399C17.1128 43.6399 16.5727 43.8637 16.1744 44.2619C15.7762 44.6601 15.5525 45.2003 15.5525 45.7634C15.5525 46.3266 15.7762 46.8667 16.1744 47.265C16.5727 47.6632 17.1128 47.8869 17.676 47.8869C17.954 47.8859 18.2291 47.8301 18.4855 47.7227C18.742 47.6154 18.9748 47.4586 19.1706 47.2612C19.3664 47.0639 19.5215 46.8299 19.6269 46.5727C19.7323 46.3154 19.786 46.04 19.785 45.7619C19.7863 45.201 19.565 44.6625 19.1695 44.2646C18.7741 43.8667 18.2369 43.6421 17.676 43.6399ZM49.703 40.1219C47.138 37.8489 42.005 38.3949 41.005 38.5279C40.4477 38.6024 39.9426 38.8946 39.6003 39.3407C39.2581 39.7868 39.1066 40.3504 39.179 40.9079C39.2532 41.4656 39.5453 41.9711 39.9913 42.3139C40.4374 42.6566 41.0011 42.8088 41.559 42.7369C43.997 42.4219 46.649 42.8139 46.942 43.4529C46.942 43.5399 46.94 43.7449 46.572 44.0529C45.987 44.5439 45.04 44.8259 44.331 44.9239C43.9426 44.9056 43.5536 44.903 43.165 44.9159C42.6369 44.9316 42.1337 45.1436 41.7536 45.5104C41.3735 45.8773 41.1438 46.3727 41.1094 46.8999C41.075 47.4271 41.2385 47.9481 41.5677 48.3612C41.897 48.7743 42.3684 49.0499 42.89 49.1339C43.4007 49.2105 43.9186 49.2262 44.433 49.1809C45.984 49.3049 46.644 49.8069 46.791 50.1389C46.925 50.4389 46.769 50.8989 46.4 51.2759C45.693 52.0049 44.186 52.4779 42.079 51.6249C41.5577 51.4134 40.9738 51.4177 40.4556 51.6367C39.9374 51.8557 39.5275 52.2717 39.316 52.7929C39.1045 53.3142 39.1087 53.8982 39.3278 54.4163C39.5468 54.9345 39.9627 55.3444 40.484 55.5559C41.823 56.0999 43.071 56.3279 44.204 56.3279C46.51 56.3279 48.331 55.3829 49.449 54.2269C51.032 52.5909 51.51 50.3119 50.669 48.4179C50.4246 47.8791 50.0871 47.3875 49.672 46.9659C50.646 46.0019 51.167 44.8129 51.187 43.5069C51.205 42.1679 50.69 40.9979 49.703 40.1219Z" fill="#EB8F8F"/>
</svg>
